<?xml version="1.0" encoding="UTF-8"?>
<svg width="20px" height="16px" viewBox="0 0 20 16" version="1.1" xmlns="http://www.w3.org/2000/svg" xmlns:xlink="http://www.w3.org/1999/xlink">
    <!-- Generator: Sketch 54 (76480) - https://sketchapp.com -->
    <title>compare__icon</title>
    <desc>Created with Sketch.</desc>
    <g id="Page-1" stroke="none" stroke-width="1" fill="none" fill-rule="evenodd">
        <g id="Menu" transform="translate(-1203.000000, -724.000000)" fill="#FFFFFF" fill-rule="nonzero">
            <g id="compare" transform="translate(1186.000000, 712.000000)">
                <g id="compare__icon" transform="translate(17.000000, 12.000000)">
                    <path d="M19.0092169,8.7659514 L14.110272,8.7659514 L14.110272,6.61891043 C14.110272,5.97914852 13.7970221,5.80769233 13.3589434,6.23505328 L9.32673492,10.2220495 C9.1172319,10.4184115 8.9977639,10.7049094 9.00003171,11.0055211 C9.00229952,11.3061327 9.12607385,11.5904643 9.33851123,11.7830686 L13.3542329,15.7649467 C13.7923116,16.1923077 14.110272,16.0208515 14.110272,15.3810896 L14.110272,13.1163324 L19.0092169,13.1163324 C19.2781733,13.1268963 19.5387752,13.0138247 19.7270524,12.8048735 C19.9153296,12.5959224 20.013849,12.3104388 19.9984269,12.018501 L19.9984269,9.98661713 C19.9984269,9.34685522 19.5980323,8.7659514 19.0092169,8.7659514 Z" id="Path"></path>
                    <path d="M10.6653362,4.22313023 L6.64347837,0.235113449 C6.2081105,-0.1923569 5.8833496,-0.02085682 5.8833496,0.619068852 L5.8833496,2.98167443 L0.997816092,2.98167443 C0.409481132,2.98167443 0,3.34771192 0,3.98763759 L0,6.03539974 C0,6.65484779 0.409481132,7.333169 0.997816092,7.333169 L5.8833496,7.333169 L5.8833496,9.38093115 C5.8833496,10.0208568 6.20105048,10.1923569 6.63877169,9.76488655 L10.6700428,5.78454887 C10.8802461,5.58925883 11.0009013,5.30333968 10.9999949,5.00265449 C10.9990886,4.70196929 10.8767122,4.41691684 10.6653362,4.22313023 Z" id="Path"></path>
                </g>
            </g>
        </g>
    </g>
</svg>