<svg xmlns="http://www.w3.org/2000/svg" width="24" height="24" viewBox="0 0 82 82"><defs><style>.cls-1{fill:#cea152;fill-rule:evenodd;}</style></defs><title>Fichier 1</title><g id="Calque_2" data-name="Calque 2"><g id="Calque_1-2" data-name="Calque 1"><path class="cls-1" d="M77.25,2.43h0a8.38,8.38,0,0,0-11.8,0L39.84,28,14.23,2.43a8.37,8.37,0,0,0-11.79,0h0a8.36,8.36,0,0,0,0,11.8L28,39.84,2.43,65.45a8.38,8.38,0,0,0,0,11.8h0a8.36,8.36,0,0,0,11.8,0L39.84,51.64,65.45,77.25a8.36,8.36,0,0,0,11.8,0h0a8.36,8.36,0,0,0,0-11.8L51.64,39.84,77.25,14.23A8.36,8.36,0,0,0,77.25,2.43Z"/></g></g></svg>